<?xml version="1.0" encoding="utf-8"?>
<!-- Generator: Adobe Illustrator 25.2.1, SVG Export Plug-In . SVG Version: 6.00 Build 0)  -->
<svg version="1.1" id="Camada_1" xmlns="http://www.w3.org/2000/svg" xmlns:xlink="http://www.w3.org/1999/xlink" x="0px" y="0px"
	 viewBox="0 0 48 13.1" style="enable-background:new 0 0 48 13.1;" xml:space="preserve">
<style type="text/css">
	.st0{fill:#FFFFFF;}
</style>
<g>
	<path class="st0" d="M1.5,10.9l8-7.2l0-0.1H2.1V1.9h11.8v0.6L6,9.6l0,0.1h8.4v1.7h-13V10.9z"/>
	<path class="st0" d="M15.5,6.7c0-3,3-5,7.5-5c4.5,0,7.5,2.1,7.5,5c0,2.9-3,5-7.5,5C18.6,11.7,15.5,9.6,15.5,6.7z M27.8,6.7
		c0-1.9-2-3.3-4.8-3.3c-2.8,0-4.8,1.3-4.8,3.3c0,1.9,2.1,3.3,4.8,3.3C25.8,10,27.8,8.6,27.8,6.7z"/>
	<path class="st0" d="M31.9,6.7c0-3,3.1-5,7.3-5c4.1,0,7.2,2.1,7.2,5c0,0.2-0.1,0.7-0.1,0.9H34.6c0.3,1.6,2.3,2.6,5.2,2.6
		c1.8,0,3.7-0.4,5-1.2l0.5,1.6c-1.4,0.8-3.6,1.3-5.7,1.3C34.6,11.7,31.9,9.4,31.9,6.7z M43.8,5.8c-0.3-1.5-2.3-2.5-4.6-2.5
		c-2.3,0-4.2,1-4.6,2.5H43.8z"/>
</g>
</svg>
